PathFileType	4	(X/Y/Z)	C:/Users/opensim2020/Desktop/walking_exp_matlab/subject01_walking09_straight_03.trc	
DataRate	CameraRate	NumFrames	NumMarkers	Units	OrigDataRate	OrigDataStartFrame	OrigNumFrames	
100.00	100.00	6	43	mm	100.00	3061	348	
Frame#	Time	LFHD			RFHD			LBHD			RBHD			C7			T10			CLAV			STRN			RBAK			LSHO			LUPA			LELB			LFRM			LWRA			LWRB			LFIN			RSHO			RUPA			RELB			RFRM			RWRA			RWRB			RFIN			LASI			RASI			LPSI			RPSI			LTHI			LKNE			LTIB			LANK			LHEE			LTOE			RTHI			RKNE			RTIB			RANK			RHEE			RTOE			*39			*40			*41			*42			
		X1	Y1	Z1	X2	Y2	Z2	X3	Y3	Z3	X4	Y4	Z4	X5	Y5	Z5	X6	Y6	Z6	X7	Y7	Z7	X8	Y8	Z8	X9	Y9	Z9	X10	Y10	Z10	X11	Y11	Z11	X12	Y12	Z12	X13	Y13	Z13	X14	Y14	Z14	X15	Y15	Z15	X16	Y16	Z16	X17	Y17	Z17	X18	Y18	Z18	X19	Y19	Z19	X20	Y20	Z20	X21	Y21	Z21	X22	Y22	Z22	X23	Y23	Z23	X24	Y24	Z24	X25	Y25	Z25	X26	Y26	Z26	X27	Y27	Z27	X28	Y28	Z28	X29	Y29	Z29	X30	Y30	Z30	X31	Y31	Z31	X32	Y32	Z32	X33	Y33	Z33	X34	Y34	Z34	X35	Y35	Z35	X36	Y36	Z36	X37	Y37	Z37	X38	Y38	Z38	X39	Y39	Z39	X40	Y40	Z40	X41	Y41	Z41	X42	Y42	Z42	X43	Y43	Z43	

218	2.170	-1118.82312	222.03616	1680.40076	-1005.75854	230.08443	1692.61133	-1113.01221	114.78396	1616.95764	-992.76306	120.40329	1627.79053	-1063.90601	96.46542	1437.26587	-1056.60364	59.64610	1146.14453	-1055.04236	240.09064	1370.41199	-1056.35425	282.23486	1214.07239	-986.53485	38.44427	1244.28809	-1218.60535	187.31815	1397.30249	-1306.07849	183.50677	1213.86890	-1313.00085	201.06424	1063.98767	-1332.92786	268.20416	969.93042	-1302.33813	369.55515	877.44391	-1336.23413	323.04977	860.89526	-1339.60730	388.25531	806.51953	-907.14221	171.15901	1398.44031	-805.66754	109.08421	1200.25916	-799.39197	110.17149	1075.59741	-764.94464	139.97568	959.61902	-782.15802	222.70361	844.48431	-741.93817	180.30020	845.47870	-743.82556	219.85855	767.67712	-1150.55627	237.21098	934.00708	-933.26532	222.65810	944.92285	-1107.16931	47.20138	947.61560	-961.47052	41.08273	951.55725	-1189.79382	212.24406	598.97015	-1167.27185	204.91191	465.27988	-1170.21643	145.00682	283.49286	-1108.30750	105.67239	71.66145	-1055.89246	59.05873	43.88232	-1113.63892	252.60648	35.51812	-857.54944	256.74640	625.09033	-873.09308	303.78992	472.08304	-871.62946	206.35612	323.94141	-919.81653	124.73756	135.11084	-978.57996	74.89230	108.67171	-898.95313	242.96346	57.18565	-1030.24707	213.45723	1722.87695	-3101.79565	1973.18591	1023.42120	-3140.63818	2012.52625	1022.01575			 
219	2.180	-1118.71155	227.66481	1680.40247	-1005.56970	235.83913	1692.56812	-1112.87244	120.42622	1616.90247	-992.56116	126.06979	1627.68152	-1063.63538	102.29550	1437.28162	-1056.77393	65.21507	1146.27930	-1054.97839	245.86060	1370.39502	-1056.51208	287.79779	1213.97937	-986.56207	44.04438	1244.36060	-1218.43750	193.04027	1397.57214	-1306.19568	189.64284	1214.31946	-1313.32983	208.10764	1064.47205	-1333.09131	276.66943	971.22400	-1302.21631	379.49612	880.54211	-1336.13977	333.15848	863.13116	-1339.54187	399.37238	809.96460	-907.01062	176.89725	1398.17163	-805.75836	114.61097	1199.94336	-799.68463	115.30994	1075.45264	-765.33081	144.38237	959.37366	-782.22150	226.59421	843.59845	-742.25629	184.11748	844.92786	-744.14075	223.04913	766.89478	-1150.88867	242.24486	933.86084	-933.53137	228.33928	945.24536	-1107.04919	52.41095	947.40808	-961.39832	46.64798	951.57074	-1189.77637	215.52792	598.78821	-1167.43823	206.86653	464.94717	-1170.15967	146.09238	283.45407	-1108.25049	105.80325	71.73425	-1055.89453	58.83466	44.22322	-1113.73193	252.59908	35.58191	-857.65051	263.64795	625.72803	-873.35529	311.92746	473.37991	-871.28485	219.28799	322.00534	-918.63971	144.93948	130.00995	-977.72424	96.16692	101.74274	-897.44836	265.83450	56.19680	-1030.06445	219.10577	1722.84497	-3102.02612	1972.97974	1024.06091	-3140.82813	2012.48999	1021.99170			 
220	2.190	-1118.29626	233.36850	1680.30981	-1005.26825	241.50125	1692.48413	-1112.52747	126.21447	1616.79602	-992.19055	131.84053	1627.59351	-1063.51611	108.01808	1437.25671	-1056.81848	70.69175	1146.31165	-1054.87585	251.62386	1370.29919	-1056.60754	293.43192	1213.84106	-986.50195	49.75310	1244.34656	-1218.32178	198.75676	1397.73560	-1306.34106	195.81715	1214.74243	-1313.77710	215.17152	1064.87012	-1332.97473	285.27359	972.46802	-1301.92981	389.34717	883.59241	-1335.84058	343.28238	865.25159	-1339.16187	410.48169	813.38177	-906.83380	182.71819	1398.03259	-805.71698	120.28999	1199.89014	-799.87817	120.41321	1075.32373	-765.53290	148.90211	959.08038	-782.54224	230.48967	843.11127	-742.57562	187.89728	844.31384	-744.37708	226.41341	766.07251	-1151.24036	247.24602	933.57318	-933.87085	233.91457	945.39795	-1106.84119	57.59307	947.22461	-961.24811	52.23948	951.48737	-1189.68372	218.74396	598.53345	-1167.66321	208.98819	464.60837	-1170.05994	147.20705	283.38940	-1108.22559	105.91083	71.82718	-1055.75439	58.87912	44.42924	-1113.72314	252.55936	35.55250	-857.76666	270.40921	626.19464	-873.68982	319.88083	474.35992	-870.68530	232.74075	319.97400	-917.32294	165.11026	125.08997	-976.49017	117.59189	94.75037	-895.84229	288.35526	55.56532	-1029.96326	224.79367	1722.59033	-3101.90601	1973.19446	1023.40790	-3140.67822	2012.53394	1021.95142			 
221	2.200	-1117.98267	239.03940	1680.23767	-1004.85748	247.23274	1692.28467	-1112.16418	131.92519	1616.61230	-991.86084	137.60358	1627.34436	-1063.27710	113.76757	1437.14172	-1056.82922	76.25732	1146.20667	-1054.67371	257.33502	1370.13074	-1056.68860	299.00961	1213.63074	-986.35718	55.41060	1244.24951	-1218.05322	204.51488	1397.83020	-1306.40564	202.04248	1215.06555	-1314.14148	222.12280	1065.09875	-1333.03992	293.66504	973.64673	-1301.49707	399.04425	886.55072	-1335.21240	353.58173	867.31793	-1338.40881	421.61456	816.68207	-906.70709	188.48450	1397.64661	-805.72168	125.79841	1199.61621	-800.11334	125.67364	1075.10974	-765.76544	153.40506	958.71558	-782.47083	234.26764	841.94769	-742.54260	191.69499	843.80310	-744.57043	229.75169	765.23102	-1151.70251	252.80296	933.36926	-934.59363	239.33960	945.43774	-1106.54419	62.88255	946.99512	-960.98395	58.00138	951.26917	-1189.44421	222.03702	598.40637	-1167.72949	210.81033	464.29047	-1170.11353	148.30566	283.32205	-1108.15125	106.09342	71.93562	-1055.71765	59.03862	44.45169	-1113.79224	252.61780	35.57947	-857.98798	276.57867	626.36871	-874.05463	327.51260	474.96201	-870.21167	245.57941	317.69058	-916.04749	185.32208	120.23086	-975.16138	138.70340	88.32050	-894.23657	311.01254	55.62968	-1029.81775	230.50890	1722.31763	-3101.84814	1973.04431	1023.40210	-3140.65796	2012.49500	1022.12549			 
222	2.210	-1117.56921	244.78102	1680.06885	-1004.38416	252.98358	1692.05481	-1111.90771	137.59573	1616.58081	-991.49915	143.32942	1627.09448	-1062.88586	119.51413	1436.98572	-1056.70349	81.89465	1146.08545	-1054.45605	263.10217	1369.88843	-1056.75415	304.61102	1213.37231	-986.25751	61.07584	1244.09912	-1217.82056	210.27744	1397.84717	-1306.47607	208.32133	1215.33411	-1314.36975	229.12865	1065.33191	-1333.09705	301.88364	974.72827	-1300.97290	408.64270	889.48560	-1334.66016	363.74829	869.38184	-1337.98792	432.47250	820.07019	-906.37439	194.36720	1397.48291	-805.75098	131.16710	1199.13696	-800.27759	130.93088	1074.81995	-765.97986	157.99228	958.28046	-782.76910	238.12538	841.19330	-742.93542	195.62653	843.10010	-744.71710	233.07973	764.31854	-1151.95654	257.72876	933.08759	-934.85315	245.31613	945.45050	-1106.22791	68.08310	946.56165	-960.65155	63.70605	951.39069	-1189.26331	225.32828	598.15900	-1167.96265	212.82779	463.98489	-1170.13818	149.39461	283.27423	-1108.05872	106.28089	72.08184	-1055.57483	59.05526	44.71839	-1113.78015	252.66090	35.53640	-858.03802	282.59579	626.67566	-874.43567	335.09286	475.56055	-869.56140	258.51224	315.63455	-914.75403	205.20158	116.01737	-973.37347	160.13283	81.80167	-892.77167	333.57040	56.11245	-1028.90002	236.22449	1722.38208	-3101.82959	1973.15723	1023.36011	-3140.74390	2012.47144	1021.92078			 
223	2.220	-1116.99011	250.56084	1679.86877	-1003.77814	258.72928	1691.78809	-1111.37170	143.47090	1616.27380	-990.96826	149.10208	1626.81958	-1062.60535	125.21185	1436.77380	-1056.41370	87.60284	1145.94104	-1054.18457	268.85007	1369.60962	-1056.73120	310.39291	1213.10864	-986.03729	66.88720	1243.78271	-1217.47424	216.02998	1397.76746	-1306.42590	214.65314	1215.52087	-1314.66394	236.08344	1065.45532	-1332.90076	310.14389	975.78326	-1300.36853	418.18857	892.36554	-1334.25183	373.52316	871.31091	-1337.21204	443.22446	823.35510	-906.03699	200.14403	1397.04810	-805.61615	136.76202	1198.93127	-800.47913	136.21837	1074.43738	-766.13495	162.57047	957.84814	-782.58167	242.31721	840.21344	-742.90198	199.53680	842.46149	-744.79431	236.56459	763.40576	-1152.22974	262.71478	932.77246	-935.13507	251.16313	945.36786	-1105.86902	73.43181	946.26892	-960.31683	69.48086	951.22192	-1189.05701	228.66554	597.92505	-1168.18762	214.90784	463.60617	-1170.18909	150.46960	283.19290	-1108.00256	106.43591	72.18564	-1055.52856	59.08971	44.99817	-1113.70715	252.89532	35.40226	-858.23462	288.31259	626.38416	-874.76788	342.35080	475.81802	-868.94714	271.27454	313.74988	-912.98663	225.19472	112.03815	-971.10120	181.57431	75.49619	-891.51550	356.16290	57.16725	-1028.38599	241.96646	1721.92358	-3101.88550	1973.17822	1023.50659	-3140.74976	2012.53992	1022.21155			 
